PathFileType	4	(X/Y/Z)	 New Session 107.trc
DataRate	CameraRate	NumFrames	NumMarkers	Units	OrigDataRate	OrigDataStartFrame	OrigNumFrames
100	100	29	14	m	100	796	909
Frame#	Time	C7			T8			IJ			PX			AA			AC			AI			TS			SC			GH			LE			ME			US			RS			
		X1	Y1	Z1	X2	Y2	Z2	X3	Y3	Z3	X4	Y4	Z4	X5	Y5	Z5	X6	Y6	Z6	X7	Y7	Z7	X8	Y8	Z8	X9	Y9	Z9	X10	Y10	Z10	X11	Y11	Z11	X12	Y12	Z12	X13	Y13	Z13	X14	Y14	Z14	
796	7.9600	0.018048	0.107006	0.161350	0.016299	-0.103567	0.237813	-0.003794	-0.000593	-0.002300	0.001941	-0.146057	-0.064807	0.209742	0.009105	0.146859	0.163422	0.049610	0.073192	0.097552	0.033390	0.201899	0.098760	-0.083998	0.237378	0.021247	0.008111	0.001998	0.222185	0.024043	0.109239	0.370305	-0.217314	0.073973	0.303301	-0.288154	0.065555	0.432860	-0.338179	-0.176210	0.430026	-0.260698	-0.186654	
797	7.9700	0.018058	0.106984	0.161401	0.016331	-0.103613	0.237700	-0.003853	-0.000586	-0.002222	0.001913	-0.146024	-0.064786	0.209755	0.009125	0.146876	0.163414	0.049628	0.073211	0.097558	0.033373	0.201929	0.098824	-0.084051	0.237336	0.021227	0.008142	0.002061	0.222190	0.024059	0.109251	0.370324	-0.217294	0.073994	0.303334	-0.288125	0.065593	0.432936	-0.338118	-0.176199	0.430095	-0.260621	-0.186628	
798	7.9800	0.018075	0.106961	0.161459	0.016359	-0.103666	0.237493	-0.003905	-0.000587	-0.002148	0.001887	-0.145990	-0.064765	0.209775	0.009141	0.146897	0.163405	0.049647	0.073242	0.097568	0.033357	0.201974	0.098892	-0.084089	0.237277	0.021210	0.008169	0.002117	0.222196	0.024078	0.109276	0.370346	-0.217271	0.074011	0.303373	-0.288095	0.065618	0.432995	-0.338029	-0.176211	0.430165	-0.260528	-0.186609	
799	7.9900	0.018100	0.106934	0.161529	0.016383	-0.103725	0.237248	-0.003942	-0.000591	-0.002082	0.001867	-0.145954	-0.064741	0.209798	0.009151	0.146928	0.163400	0.049659	0.073286	0.097586	0.033338	0.202034	0.098958	-0.084124	0.237240	0.021198	0.008182	0.002169	0.222203	0.024098	0.109322	0.370373	-0.217246	0.074022	0.303414	-0.288064	0.065638	0.433051	-0.337926	-0.176239	0.430235	-0.260424	-0.186598	
800	8.0000	0.018124	0.106901	0.161613	0.016401	-0.103786	0.237066	-0.003961	-0.000592	-0.002028	0.001852	-0.145919	-0.064715	0.209820	0.009152	0.146975	0.163397	0.049660	0.073343	0.097605	0.033314	0.202108	0.099008	-0.084165	0.237247	0.021189	0.008188	0.002228	0.222212	0.024116	0.109391	0.370403	-0.217220	0.074027	0.303455	-0.288032	0.065658	0.433114	-0.337820	-0.176270	0.430312	-0.260311	-0.186589	
801	8.0100	0.018143	0.106862	0.161705	0.016416	-0.103849	0.237025	-0.003968	-0.000584	-0.001982	0.001842	-0.145883	-0.064684	0.209832	0.009144	0.147039	0.163396	0.049656	0.073413	0.097629	0.033274	0.202190	0.099036	-0.084212	0.237299	0.021182	0.008194	0.002295	0.222222	0.024130	0.109481	0.370437	-0.217192	0.074027	0.303496	-0.288002	0.065677	0.433188	-0.337718	-0.176299	0.430396	-0.260187	-0.186579	
802	8.0200	0.018153	0.106823	0.161799	0.016431	-0.103913	0.237167	-0.003965	-0.000561	-0.001940	0.001837	-0.145847	-0.064649	0.209835	0.009128	0.147119	0.163399	0.049659	0.073499	0.097647	0.033221	0.202282	0.099041	-0.084260	0.237384	0.021182	0.008209	0.002367	0.222230	0.024139	0.109587	0.370474	-0.217159	0.074026	0.303540	-0.287971	0.065697	0.433265	-0.337616	-0.176328	0.430472	-0.260052	-0.186572	
803	8.0300	0.018156	0.106789	0.161893	0.016450	-0.103981	0.237440	-0.003947	-0.000524	-0.001890	0.001834	-0.145809	-0.064609	0.209835	0.009107	0.147210	0.163408	0.049676	0.073601	0.097647	0.033163	0.202381	0.099035	-0.084312	0.237486	0.021195	0.008230	0.002447	0.222233	0.024140	0.109701	0.370515	-0.217123	0.074028	0.303588	-0.287941	0.065715	0.433333	-0.337505	-0.176363	0.430526	-0.259912	-0.186574	
804	8.0400	0.018157	0.106764	0.161987	0.016473	-0.104057	0.237714	-0.003914	-0.000482	-0.001825	0.001833	-0.145772	-0.064564	0.209839	0.009080	0.147305	0.163426	0.049700	0.073712	0.097645	0.033101	0.202473	0.099034	-0.084372	0.237584	0.021224	0.008252	0.002536	0.222231	0.024133	0.109816	0.370557	-0.217086	0.074037	0.303644	-0.287910	0.065730	0.433392	-0.337378	-0.176397	0.430554	-0.259771	-0.186586	
805	8.0500	0.018167	0.106746	0.162080	0.016497	-0.104139	0.237895	-0.003872	-0.000448	-0.001748	0.001834	-0.145737	-0.064513	0.209848	0.009047	0.147399	0.163452	0.049723	0.073825	0.097661	0.033038	0.202560	0.099049	-0.084445	0.237666	0.021260	0.008266	0.002637	0.222227	0.024121	0.109928	0.370598	-0.217052	0.074052	0.303707	-0.287880	0.065742	0.433448	-0.337239	-0.176423	0.430563	-0.259634	-0.186604	
806	8.0600	0.018194	0.106722	0.162164	0.016520	-0.104222	0.237974	-0.003823	-0.000433	-0.001662	0.001836	-0.145703	-0.064457	0.209866	0.009011	0.147488	0.163484	0.049735	0.073933	0.097696	0.032978	0.202660	0.099079	-0.084527	0.237736	0.021292	0.008271	0.002739	0.222224	0.024104	0.110034	0.370639	-0.217024	0.074069	0.303775	-0.287850	0.065751	0.433515	-0.337095	-0.176439	0.430565	-0.259508	-0.186625	
807	8.0700	0.018244	0.106679	0.162228	0.016541	-0.104299	0.237994	-0.003767	-0.000437	-0.001576	0.001838	-0.145672	-0.064397	0.209891	0.008972	0.147570	0.163519	0.049737	0.074036	0.097740	0.032916	0.202771	0.099116	-0.084611	0.237802	0.021319	0.008274	0.002834	0.222225	0.024080	0.110134	0.370681	-0.217001	0.074083	0.303845	-0.287823	0.065757	0.433589	-0.336961	-0.176454	0.430566	-0.259394	-0.186646	
808	8.0800	0.018312	0.106614	0.162270	0.016563	-0.104370	0.238013	-0.003694	-0.000454	-0.001496	0.001840	-0.145643	-0.064336	0.209922	0.008935	0.147646	0.163556	0.049732	0.074134	0.097783	0.032850	0.202879	0.099152	-0.084689	0.237869	0.021353	0.008286	0.002917	0.222234	0.024050	0.110229	0.370726	-0.216985	0.074091	0.303913	-0.287800	0.065763	0.433658	-0.336849	-0.176477	0.430567	-0.259293	-0.186668	
809	8.0900	0.018387	0.106543	0.162302	0.016590	-0.104435	0.238063	-0.003604	-0.000476	-0.001425	0.001841	-0.145614	-0.064277	0.209955	0.008898	0.147718	0.163595	0.049724	0.074226	0.097833	0.032783	0.202974	0.099185	-0.084757	0.237935	0.021397	0.008306	0.002990	0.222252	0.024013	0.110315	0.370775	-0.216976	0.074093	0.303977	-0.287780	0.065767	0.433716	-0.336758	-0.176510	0.430564	-0.259203	-0.186690	
810	8.1000	0.018456	0.106492	0.162346	0.016620	-0.104497	0.238142	-0.003509	-0.000497	-0.001361	0.001840	-0.145585	-0.064225	0.209990	0.008860	0.147785	0.163635	0.049712	0.074307	0.097897	0.032719	0.203055	0.099214	-0.084816	0.237994	0.021445	0.008325	0.003053	0.222277	0.023971	0.110393	0.370826	-0.216973	0.074090	0.304035	-0.287767	0.065773	0.433766	-0.336681	-0.176548	0.430558	-0.259121	-0.186713	
811	8.1100	0.018511	0.106475	0.162415	0.016648	-0.104554	0.238215	-0.003424	-0.000516	-0.001301	0.001839	-0.145553	-0.064184	0.210028	0.008822	0.147849	0.163676	0.049693	0.074377	0.097963	0.032663	0.203128	0.099244	-0.084869	0.238040	0.021488	0.008333	0.003105	0.222306	0.023929	0.110459	0.370876	-0.216977	0.074085	0.304086	-0.287763	0.065782	0.433807	-0.336615	-0.176585	0.430547	-0.259046	-0.186734	
812	8.1200	0.018555	0.106484	0.162502	0.016673	-0.104600	0.238217	-0.003357	-0.000537	-0.001246	0.001839	-0.145517	-0.064159	0.210067	0.008784	0.147908	0.163718	0.049667	0.074440	0.098011	0.032616	0.203198	0.099280	-0.084919	0.238070	0.021523	0.008326	0.003149	0.222339	0.023893	0.110520	0.370922	-0.216988	0.074084	0.304129	-0.287770	0.065793	0.433838	-0.336559	-0.176620	0.430529	-0.258981	-0.186751	
813	8.1300	0.018600	0.106500	0.162585	0.016697	-0.104632	0.238094	-0.003310	-0.000557	-0.001196	0.001840	-0.145474	-0.064151	0.210107	0.008747	0.147959	0.163757	0.049636	0.074500	0.098052	0.032578	0.203267	0.099325	-0.084967	0.238087	0.021548	0.008313	0.003190	0.222383	0.023868	0.110584	0.370961	-0.217005	0.074089	0.304163	-0.287788	0.065808	0.433863	-0.336511	-0.176648	0.430502	-0.258928	-0.186765	
814	8.1400	0.018651	0.106508	0.162651	0.016722	-0.104650	0.237848	-0.003281	-0.000569	-0.001151	0.001845	-0.145426	-0.064161	0.210148	0.008712	0.148001	0.163792	0.049611	0.074555	0.098099	0.032546	0.203328	0.099376	-0.085014	0.238097	0.021562	0.008302	0.003230	0.222439	0.023851	0.110649	0.370993	-0.217028	0.074101	0.304188	-0.287814	0.065824	0.433886	-0.336473	-0.176668	0.430467	-0.258890	-0.186777	
815	8.1500	0.018706	0.106505	0.162695	0.016749	-0.104656	0.237565	-0.003263	-0.000571	-0.001113	0.001852	-0.145376	-0.064184	0.210190	0.008682	0.148039	0.163827	0.049593	0.074600	0.098140	0.032517	0.203371	0.099428	-0.085057	0.238111	0.021573	0.008296	0.003263	0.222498	0.023834	0.110708	0.371018	-0.217054	0.074115	0.304205	-0.287846	0.065841	0.433901	-0.336444	-0.176684	0.430428	-0.258865	-0.186789	
816	8.1600	0.018763	0.106491	0.162720	0.016777	-0.104662	0.237372	-0.003251	-0.000568	-0.001083	0.001861	-0.145329	-0.064211	0.210231	0.008657	0.148072	0.163862	0.049579	0.074633	0.098178	0.032495	0.203405	0.099471	-0.085088	0.238140	0.021594	0.008296	0.003278	0.222550	0.023813	0.110749	0.371039	-0.217085	0.074128	0.304215	-0.287879	0.065857	0.433902	-0.336427	-0.176701	0.430394	-0.258853	-0.186802	
817	8.1700	0.018820	0.106468	0.162730	0.016805	-0.104676	0.237322	-0.003244	-0.000562	-0.001060	0.001872	-0.145293	-0.064231	0.210271	0.008635	0.148096	0.163899	0.049561	0.074652	0.098213	0.032479	0.203449	0.099501	-0.085108	0.238180	0.021630	0.008296	0.003279	0.222591	0.023787	0.110772	0.371056	-0.217121	0.074136	0.304220	-0.287911	0.065871	0.433888	-0.336424	-0.176717	0.430372	-0.258853	-0.186811	
818	8.1800	0.018881	0.106438	0.162732	0.016839	-0.104700	0.237421	-0.003243	-0.000556	-0.001036	0.001883	-0.145273	-0.064236	0.210311	0.008612	0.148110	0.163940	0.049536	0.074663	0.098251	0.032463	0.203492	0.099519	-0.085119	0.238225	0.021672	0.008289	0.003280	0.222620	0.023758	0.110776	0.371070	-0.217161	0.074140	0.304219	-0.287940	0.065882	0.433863	-0.336435	-0.176728	0.430364	-0.258868	-0.186809	
819	8.1900	0.018944	0.106409	0.162735	0.016881	-0.104734	0.237684	-0.003241	-0.000550	-0.001008	0.001893	-0.145272	-0.064223	0.210355	0.008586	0.148117	0.163982	0.049503	0.074673	0.098298	0.032443	0.203515	0.099529	-0.085117	0.238280	0.021704	0.008273	0.003295	0.222639	0.023727	0.110766	0.371077	-0.217209	0.074139	0.304211	-0.287969	0.065890	0.433833	-0.336464	-0.176733	0.430364	-0.258897	-0.186796	
820	8.2000	0.019000	0.106388	0.162747	0.016929	-0.104772	0.238052	-0.003233	-0.000541	-0.000977	0.001901	-0.145286	-0.064195	0.210399	0.008558	0.148122	0.164021	0.049469	0.074685	0.098341	0.032427	0.203534	0.099534	-0.085107	0.238346	0.021720	0.008249	0.003325	0.222648	0.023693	0.110746	0.371075	-0.217265	0.074136	0.304195	-0.287999	0.065897	0.433798	-0.336510	-0.176737	0.430365	-0.258941	-0.186774	
821	8.2100	0.019049	0.106370	0.162762	0.016974	-0.104802	0.238368	-0.003211	-0.000532	-0.000944	0.001907	-0.145305	-0.064165	0.210441	0.008532	0.148128	0.164056	0.049436	0.074701	0.098376	0.032423	0.203575	0.099539	-0.085099	0.238412	0.021723	0.008223	0.003362	0.222649	0.023653	0.110720	0.371067	-0.217330	0.074129	0.304171	-0.288034	0.065905	0.433759	-0.336571	-0.176742	0.430359	-0.258996	-0.186752	
822	8.2200	0.019095	0.106347	0.162773	0.017006	-0.104814	0.238510	-0.003176	-0.000520	-0.000917	0.001912	-0.145318	-0.064144	0.210481	0.008508	0.148136	0.164088	0.049407	0.074719	0.098419	0.032421	0.203623	0.099548	-0.085101	0.238461	0.021725	0.008204	0.003389	0.222648	0.023609	0.110695	0.371056	-0.217400	0.074121	0.304140	-0.288077	0.065914	0.433718	-0.336643	-0.176744	0.430343	-0.259062	-0.186740	
823	8.2300	0.019141	0.106324	0.162781	0.017025	-0.104812	0.238469	-0.003128	-0.000505	-0.000898	0.001916	-0.145316	-0.064142	0.210522	0.008485	0.148147	0.164122	0.049379	0.074734	0.098469	0.032412	0.203659	0.099565	-0.085115	0.238487	0.021738	0.008198	0.003398	0.222653	0.023566	0.110678	0.371045	-0.217475	0.074115	0.304103	-0.288128	0.065927	0.433674	-0.336720	-0.176739	0.430320	-0.259141	-0.186741	
824	8.2400	0.019185	0.106307	0.162790	0.017040	-0.104805	0.238336	-0.003075	-0.000487	-0.000886	0.001919	-0.145298	-0.064159	0.210565	0.008461	0.148159	0.164158	0.049354	0.074743	0.098510	0.032391	0.203673	0.099588	-0.085135	0.238502	0.021764	0.008204	0.003398	0.222667	0.023527	0.110674	0.371036	-0.217549	0.074114	0.304059	-0.288186	0.065941	0.433627	-0.336801	-0.176730	0.430293	-0.259232	-0.186754	
